{"glyphs":{":":{"x_min":0,"x_max":275,"ha":275,"o":"m 230 497 l 230 319 l 45 319 l 45 497 z m 230 178 l 230 0 l 45 0 l 45 178 z"},"$":{"x_min":0,"x_max":586,"ha":586,"o":"m 238 652 l 238 735 l 332 735 l 332 654 q 490 636 538 504 l 385 456 q 362 518 290 518 q 229 518 229 479 q 229 465 239 455 q 250 445 296 435 q 402 412 448 393 q 494 375 524 331 q 555 288 555 228 q 555 145 495 88 q 436 32 332 20 l 332 -64 l 238 -64 l 238 20 q 62 41 16 206 l 187 238 q 209 163 298 163 q 367 163 367 201 q 367 221 351 232 q 335 243 294 251 q 133 284 90 335 q 46 386 46 452 q 46 524 94 581 q 141 637 238 652 z"},"?":{"x_min":0,"x_max":546,"ha":546,"o":"m 189 428 l 10 448 q 51 677 276 677 q 390 677 455 617 q 521 557 521 469 q 521 430 508 397 q 495 365 474 344 q 454 324 409 291 q 374 265 365 254 q 355 242 352 220 l 189 220 q 189 279 200 305 q 210 332 243 361 q 292 405 305 427 q 317 449 317 478 q 317 508 301 524 q 285 541 261 541 q 190 541 189 428 z m 370 178 l 370 0 l 183 0 l 183 178 z"},"<":{"x_min":0,"x_max":586,"ha":586,"o":"m 500 616 l 500 479 l 212 334 l 500 189 l 500 53 l 67 277 l 67 392 z"},"'":{"x_min":0,"x_max":225,"ha":225,"o":"m 160 385 l 65 385 l 41 667 l 185 667 z"},"=":{"x_min":0,"x_max":586,"ha":586,"o":"m 536 485 l 536 361 l 50 361 l 50 485 z m 536 299 l 536 175 l 50 175 l 50 299 z"},"a":{"x_min":0,"x_max":586,"ha":586,"o":"m 552 0 l 366 0 q 359 32 359 69 q 307 -10 200 -10 q 112 -10 68 35 q 24 80 24 138 q 24 216 96 265 q 167 313 350 323 l 350 334 q 350 367 335 378 q 320 389 291 389 q 224 389 216 334 l 38 351 q 76 507 297 507 q 357 507 408 495 q 458 483 487 458 q 517 432 527 404 q 537 375 537 295 l 537 97 q 537 40 552 0 z m 350 232 q 225 219 225 153 q 225 108 274 108 q 306 108 328 126 q 350 145 350 208 z"},"L":{"x_min":0,"x_max":539,"ha":539,"o":"m 525 164 l 525 0 l 58 0 l 58 667 l 263 667 l 263 164 z"},"3":{"x_min":0,"x_max":586,"ha":586,"o":"m 12 204 l 186 225 q 203 134 284 134 q 320 134 343 153 q 366 172 366 204 q 366 226 354 242 q 341 258 327 265 q 313 271 278 271 l 197 271 l 197 411 l 266 411 q 320 411 336 430 q 352 450 352 471 q 352 497 332 515 q 312 532 281 532 q 212 532 197 456 l 36 481 q 58 575 129 626 q 200 677 297 677 q 407 677 473 625 q 540 574 540 489 q 540 438 511 399 q 483 361 440 348 q 560 312 560 191 q 560 96 487 43 q 414 -10 298 -10 q 64 -10 12 204 z"},";":{"x_min":0,"x_max":275,"ha":275,"o":"m 230 497 l 230 319 l 45 319 l 45 497 z m 230 177 l 230 14 l 124 -171 l 47 -171 l 124 0 l 45 0 l 45 177 z"},"J":{"x_min":0,"x_max":416,"ha":416,"o":"m 365 667 l 365 247 q 365 150 347 99 q 330 49 280 19 q 229 -10 144 -10 q 68 -10 7 6 l 7 165 q 50 153 87 153 q 131 153 149 173 q 168 193 168 247 l 168 667 z"},"V":{"x_min":0,"x_max":638,"ha":638,"o":"m 635 667 l 428 0 l 219 0 l 3 667 l 219 667 l 324 303 q 335 271 343 240 l 466 667 z"},"\"":{"x_min":0,"x_max":413,"ha":413,"o":"m 160 385 l 64 385 l 41 667 l 185 667 z m 348 385 l 252 385 l 228 667 l 372 667 z"},"7":{"x_min":0,"x_max":586,"ha":586,"o":"m 538 667 l 538 542 q 465 456 413 314 q 361 172 361 42 q 361 29 363 0 l 143 0 q 143 118 200 257 q 257 396 354 500 l 45 500 l 59 667 z"},"S":{"x_min":0,"x_max":607,"ha":607,"o":"m -11 193 l 179 227 q 203 146 302 146 q 379 146 379 188 q 379 209 362 221 q 344 233 298 242 q 123 276 73 330 q 23 384 23 458 q 23 552 94 614 q 166 677 300 677 q 504 677 569 513 l 400 462 q 374 529 293 529 q 226 529 226 487 q 226 469 241 458 q 256 448 300 439 q 419 414 470 394 q 520 375 554 327 q 587 280 587 216 q 587 115 505 52 q 423 -10 290 -10 q 46 -10 -11 193 z"},"}":{"x_min":0,"x_max":293,"ha":293,"o":"m 159 255 q 127 275 113 300 q 99 324 99 375 l 99 520 q 99 561 88 573 q 76 585 20 585 q 13 585 0 584 l 0 665 q 3 665 33 666 q 77 667 91 667 q 174 667 208 635 q 242 603 242 530 l 242 367 q 242 320 259 304 q 275 289 297 286 l 297 215 q 242 207 242 143 l 242 -21 q 242 -91 209 -124 q 176 -157 89 -157 q 78 -157 0 -155 l 0 -77 l 20 -77 q 76 -77 88 -65 q 99 -53 99 -12 l 99 135 q 99 165 108 197 q 117 229 159 255 z"},"Z":{"x_min":0,"x_max":588,"ha":588,"o":"m 571 157 l 571 0 l 17 0 l 17 127 l 312 512 l 39 512 l 39 667 l 562 667 l 562 537 l 275 157 z"},"x":{"x_min":0,"x_max":553,"ha":553,"o":"m 560 0 l 340 0 l 249 158 l 151 0 l -7 0 l 167 263 l 15 497 l 231 497 l 283 404 q 286 397 291 389 q 293 385 298 376 q 303 385 311 399 q 312 401 316 409 l 367 497 l 528 497 l 382 271 z"},")":{"x_min":0,"x_max":293,"ha":293,"o":"m 2 -157 q 129 30 129 254 q 129 470 2 667 l 134 667 q 288 469 288 252 q 288 25 134 -157 z"},"&":{"x_min":0,"x_max":740,"ha":740,"o":"m 547 390 l 720 369 q 688 233 610 163 q 632 145 673 145 q 691 145 720 147 l 720 4 q 679 -7 641 -7 q 550 -7 484 47 q 417 -10 292 -10 q 176 -10 100 44 q 25 99 25 196 q 25 325 179 379 q 125 448 125 509 q 125 586 183 631 q 241 677 343 677 q 438 677 496 633 q 554 590 554 513 q 554 450 516 407 q 478 364 428 349 l 497 276 q 530 309 547 390 z m 350 445 q 398 464 398 507 q 398 529 385 543 q 371 557 348 557 q 327 557 314 545 q 301 533 301 516 q 301 484 350 445 z m 269 282 q 221 261 221 209 q 221 175 243 155 q 266 134 305 134 q 352 134 380 161 z"},"_":{"x_min":0,"x_max":500,"ha":500,"o":"m 0 -46 l 500 -46 l 500 -163 l 0 -163 z"},"v":{"x_min":0,"x_max":506,"ha":506,"o":"m 510 497 l 328 0 l 182 0 l -3 497 l 197 497 l 268 286 q 276 260 283 234 q 286 243 291 257 q 292 259 297 275 l 370 497 z"},"O":{"x_min":0,"x_max":691,"ha":691,"o":"m 346 -10 q 206 -10 117 83 q 28 176 28 333 q 28 482 113 579 q 198 677 348 677 q 487 677 575 585 q 663 493 663 340 q 663 181 574 85 q 486 -10 346 -10 z m 345 141 q 397 141 420 186 q 442 231 442 352 q 442 525 349 525 q 249 525 249 327 q 249 141 345 141 z"},"(":{"x_min":0,"x_max":293,"ha":293,"o":"m 292 667 q 164 479 164 256 q 164 41 292 -157 l 160 -157 q 5 41 5 258 q 5 485 160 667 z"},"C":{"x_min":0,"x_max":628,"ha":628,"o":"m 425 254 l 612 243 q 599 121 521 55 q 444 -10 331 -10 q 195 -10 112 80 q 28 169 28 328 q 28 484 107 581 q 187 677 328 677 q 460 677 531 604 q 603 530 612 409 l 421 399 q 421 466 395 496 q 370 525 335 525 q 238 525 238 331 q 238 222 263 183 q 289 144 334 144 q 415 144 425 254 z"},"W":{"x_min":0,"x_max":900,"ha":900,"o":"m 893 667 l 716 0 l 544 0 l 451 368 l 363 0 l 184 0 l 7 667 l 199 667 l 292 282 l 383 667 l 544 667 l 643 282 l 736 667 z"},"A":{"x_min":0,"x_max":638,"ha":638,"o":"m 426 0 l 388 131 l 209 131 l 169 0 l 3 0 l 209 667 l 426 667 l 634 0 z m 244 277 l 353 277 l 298 470 z"},"f":{"x_min":0,"x_max":392,"ha":392,"o":"m 261 370 l 261 0 l 78 0 l 78 370 l 3 370 l 3 497 l 78 497 q 78 558 83 588 q 88 617 110 644 q 131 671 167 686 q 204 700 265 700 q 330 700 390 690 l 390 562 q 344 569 321 569 q 298 569 279 560 q 260 550 260 514 l 260 497 l 387 497 l 387 370 z"},"Q":{"x_min":0,"x_max":691,"ha":691,"o":"m 415 -3 q 380 -10 347 -10 q 203 -10 116 85 q 28 180 28 332 q 28 482 113 580 q 198 677 348 677 q 487 677 575 585 q 663 493 663 340 q 663 154 543 56 q 553 27 605 27 q 628 27 660 34 l 660 -117 q 606 -123 575 -123 q 521 -123 478 -100 q 435 -77 415 -3 z m 345 141 q 397 141 420 186 q 442 231 442 352 q 442 525 349 525 q 249 525 249 327 q 249 141 345 141 z"},"w":{"x_min":0,"x_max":743,"ha":743,"o":"m 736 497 l 579 0 l 438 0 l 374 269 l 306 0 l 167 0 l 7 497 l 198 497 l 264 253 l 326 497 l 470 497 l 532 253 l 601 497 z"},"-":{"x_min":0,"x_max":275,"ha":275,"o":"m 261 329 l 261 175 l 14 175 l 14 329 z"},"E":{"x_min":0,"x_max":583,"ha":583,"o":"m 560 159 l 560 0 l 58 0 l 58 667 l 560 667 l 560 513 l 259 513 l 259 416 l 502 416 l 502 268 l 259 268 l 259 159 z"},"s":{"x_min":0,"x_max":530,"ha":530,"o":"m 7 141 l 161 162 q 174 108 266 108 q 341 108 341 137 q 341 150 327 157 q 312 164 257 171 q 106 192 68 237 q 31 282 31 336 q 31 413 94 460 q 158 507 261 507 q 441 507 491 376 l 344 349 q 323 393 257 393 q 226 393 211 384 q 195 375 195 367 q 195 343 242 337 q 364 324 408 310 q 451 295 482 258 q 513 220 513 167 q 513 85 445 38 q 376 -10 257 -10 q 55 -10 7 141 z"},">":{"x_min":0,"x_max":586,"ha":586,"o":"m 86 53 l 86 190 l 374 334 l 86 480 l 86 616 l 520 392 l 520 276 z"},"l":{"x_min":0,"x_max":294,"ha":294,"o":"m 243 667 l 243 0 l 51 0 l 51 667 z"},"8":{"x_min":0,"x_max":586,"ha":586,"o":"m 457 362 q 565 308 565 198 q 565 98 488 44 q 410 -10 284 -10 q 157 -10 89 41 q 21 92 21 175 q 21 280 125 326 q 42 373 42 472 q 42 559 110 618 q 178 677 299 677 q 407 677 475 628 q 543 579 543 499 q 543 462 528 430 q 512 399 457 362 z m 333 414 q 374 434 374 475 q 374 505 351 525 q 328 545 286 545 q 256 545 240 531 q 223 517 223 496 q 223 458 271 438 z m 241 259 q 195 231 195 190 q 195 160 221 139 q 247 119 294 119 q 333 119 354 133 q 374 147 374 170 q 374 208 317 230 z"},"\\":{"x_min":0,"x_max":511,"ha":511,"o":"m 23 667 l 123 667 l 572 -157 l 474 -157 z"},"e":{"x_min":0,"x_max":586,"ha":586,"o":"m 379 178 l 561 166 q 545 93 479 41 q 413 -10 300 -10 q 174 -10 100 62 q 25 135 25 242 q 25 354 99 430 q 172 507 295 507 q 415 507 488 435 q 562 362 562 238 q 562 228 561 209 l 229 209 q 229 163 245 140 q 261 117 305 117 q 368 117 379 178 z m 367 307 q 366 357 346 375 q 327 392 297 392 q 228 392 228 307 z"},"b":{"x_min":0,"x_max":587,"ha":587,"o":"m 162 0 l 52 0 l 52 667 l 244 667 l 244 438 q 284 507 372 507 q 433 507 476 475 q 519 442 540 383 q 561 323 561 257 q 561 137 507 63 q 454 -10 347 -10 q 242 -10 188 68 q 172 39 162 0 z m 244 185 q 244 112 301 112 q 332 112 348 138 q 364 165 364 248 q 364 338 346 362 q 327 385 300 385 q 278 385 261 368 q 244 352 244 320 z"},"%":{"x_min":0,"x_max":710,"ha":710,"o":"m 165 329 q 103 329 66 376 q 30 423 30 501 q 30 581 67 626 q 104 672 167 672 q 231 672 266 623 q 301 575 301 498 q 301 420 264 374 q 226 329 165 329 z m 165 401 q 200 401 200 499 q 200 543 193 571 q 187 599 166 599 q 132 599 132 505 q 132 447 139 424 q 146 401 165 401 z m 603 667 l 198 0 l 105 0 l 513 667 z m 544 -5 q 482 -5 446 42 q 410 89 410 167 q 410 247 447 293 q 484 339 546 339 q 606 339 643 293 q 681 248 681 165 q 681 87 643 41 q 605 -5 544 -5 z m 545 68 q 580 68 580 166 q 580 210 573 238 q 567 266 546 266 q 512 266 512 172 q 512 113 519 90 q 526 68 545 68 z"},"m":{"x_min":0,"x_max":855,"ha":855,"o":"m 804 0 l 615 0 l 615 311 q 615 342 606 354 q 597 367 574 367 q 519 367 519 287 l 519 0 l 332 0 l 332 311 q 332 370 286 370 q 239 370 239 311 l 239 0 l 51 0 l 51 497 l 226 497 l 226 430 q 273 507 362 507 q 458 507 502 430 q 550 507 650 507 q 698 507 735 487 q 771 467 787 435 q 804 404 804 338 z"},"#":{"x_min":0,"x_max":586,"ha":586,"o":"m 541 303 l 522 199 l 425 199 l 389 0 l 277 0 l 313 199 l 235 199 l 199 0 l 88 0 l 125 199 l 15 199 l 34 303 l 144 303 l 157 377 l 49 377 l 68 480 l 176 480 l 209 667 l 319 667 l 286 480 l 364 480 l 398 667 l 510 667 l 476 480 l 571 480 l 552 377 l 457 377 l 444 303 z m 345 377 l 267 377 l 253 303 l 332 303 z"},",":{"x_min":0,"x_max":275,"ha":275,"o":"m 230 177 l 230 14 l 124 -171 l 47 -171 l 124 0 l 45 0 l 45 177 z"},"n":{"x_min":0,"x_max":587,"ha":587,"o":"m 536 0 l 341 0 l 341 312 q 341 351 329 362 q 317 373 299 373 q 246 373 246 298 l 246 0 l 51 0 l 51 497 l 232 497 l 232 426 q 272 507 375 507 q 429 507 467 486 q 504 465 520 432 q 536 399 536 318 z"},"h":{"x_min":0,"x_max":591,"ha":591,"o":"m 539 0 l 345 0 l 345 299 q 345 340 336 355 q 327 371 301 371 q 281 371 266 359 q 251 347 249 334 q 246 321 246 281 l 246 0 l 51 0 l 51 667 l 246 667 l 246 438 q 299 507 384 507 q 427 507 459 492 q 492 477 509 454 q 527 430 533 408 q 539 386 539 323 z"},"z":{"x_min":0,"x_max":471,"ha":471,"o":"m 455 124 l 455 0 l 17 0 l 17 108 l 226 377 q 188 375 175 375 l 34 375 l 34 497 l 447 497 l 447 392 l 233 123 l 259 123 q 267 124 273 124 z"},"B":{"x_min":0,"x_max":643,"ha":643,"o":"m 58 0 l 58 667 l 396 667 q 502 667 550 613 q 599 560 599 492 q 599 442 571 402 q 542 361 487 346 q 616 315 616 191 q 616 117 571 58 q 525 0 375 0 z m 247 411 l 341 411 q 377 411 392 429 q 406 447 406 468 q 406 523 338 523 l 247 523 z m 247 148 l 346 148 q 383 148 401 167 q 418 185 418 208 q 418 231 401 250 q 384 270 339 270 l 247 270 z"},"K":{"x_min":0,"x_max":656,"ha":656,"o":"m 659 0 l 435 0 l 320 252 l 251 154 l 251 0 l 58 0 l 58 667 l 251 667 l 251 391 l 435 667 l 619 667 l 450 423 z"},"R":{"x_min":0,"x_max":690,"ha":690,"o":"m 651 0 l 424 0 l 327 255 l 263 255 l 263 0 l 58 0 l 58 667 l 406 667 q 521 667 585 613 q 649 559 649 470 q 649 413 625 368 q 602 324 531 291 z m 263 397 l 350 397 q 389 397 412 414 q 436 430 436 461 q 436 525 357 525 l 263 525 z"},"T":{"x_min":0,"x_max":470,"ha":470,"o":"m 332 507 l 332 0 l 138 0 l 138 507 l 0 507 l 0 667 l 470 667 l 470 507 z"},"P":{"x_min":0,"x_max":643,"ha":643,"o":"m 266 242 l 266 0 l 58 0 l 58 667 l 343 667 q 449 667 505 642 q 560 618 593 567 q 625 517 625 455 q 625 359 559 301 q 492 242 381 242 z m 263 385 l 331 385 q 421 385 421 452 q 421 514 338 514 l 263 514 z"},"|":{"x_min":0,"x_max":500,"ha":500,"o":"m 181 667 l 319 667 l 319 -167 l 181 -167 z"},"t":{"x_min":0,"x_max":372,"ha":372,"o":"m 358 497 l 358 370 l 259 370 l 259 187 q 259 149 273 142 q 287 135 302 135 q 326 135 358 144 l 358 5 q 300 -6 245 -6 q 155 -6 113 32 q 70 71 70 155 l 71 213 l 71 370 l -3 370 l -3 497 l 71 497 l 74 658 l 259 661 l 259 497 z"},"M":{"x_min":0,"x_max":841,"ha":841,"o":"m 783 667 l 783 0 l 593 0 l 593 477 l 469 0 l 339 0 l 211 477 l 211 0 l 58 0 l 58 667 l 325 667 l 422 312 l 514 667 z"},"g":{"x_min":0,"x_max":569,"ha":569,"o":"m 569 609 l 564 476 l 555 477 q 528 478 517 478 q 472 478 462 460 q 518 414 518 349 q 518 273 458 235 q 397 196 294 196 q 292 196 269 197 q 247 198 246 198 q 199 198 199 174 q 199 152 241 151 l 400 144 q 488 140 529 95 q 569 50 569 -10 q 569 -81 509 -126 q 448 -171 272 -171 q 1 -171 1 -47 q 1 21 73 48 q 26 81 26 125 q 26 199 122 236 q 42 271 42 351 q 42 425 106 466 q 171 507 283 507 q 334 507 376 497 q 394 613 500 613 q 524 613 569 609 z m 284 289 q 340 289 340 349 q 340 410 282 410 q 225 410 225 348 q 225 289 284 289 z m 234 6 q 223 7 212 7 q 162 7 162 -24 q 162 -53 200 -62 q 239 -70 303 -70 q 363 -70 381 -60 q 398 -49 398 -31 q 398 -19 390 -10 q 382 -1 353 0 z"},"j":{"x_min":0,"x_max":297,"ha":297,"o":"m 246 687 l 246 533 l 52 533 l 52 687 z m 246 497 l 246 29 q 246 -42 234 -81 q 221 -120 178 -146 q 135 -173 57 -173 q 5 -173 -42 -164 l -42 -22 q -21 -31 0 -31 q 52 -31 52 29 l 52 497 z"},"i":{"x_min":0,"x_max":297,"ha":297,"o":"m 246 688 l 246 533 l 51 533 l 51 688 z m 246 497 l 246 0 l 51 0 l 51 497 z"},"y":{"x_min":0,"x_max":512,"ha":512,"o":"m 515 497 l 320 -42 q 298 -103 256 -137 q 214 -171 126 -171 q 105 -171 29 -167 l 29 -29 q 67 -35 99 -35 q 183 -35 183 2 q 183 15 175 36 l -3 497 l 205 497 l 287 232 l 373 497 z"},"@":{"x_min":0,"x_max":767,"ha":767,"o":"m 554 503 l 527 284 q 524 261 524 245 q 524 224 543 224 q 579 224 611 269 q 644 313 644 380 q 644 478 573 542 q 501 606 398 606 q 286 606 208 528 q 131 450 131 333 q 131 225 203 145 q 275 64 407 64 q 508 64 616 121 l 648 41 q 530 -20 407 -20 q 235 -20 134 84 q 33 188 33 333 q 33 484 139 585 q 246 687 396 687 q 540 687 637 597 q 733 508 733 382 q 733 282 674 212 q 615 141 534 141 q 479 141 451 184 q 413 139 360 139 q 301 139 259 189 q 217 239 217 321 q 217 404 265 457 q 312 510 378 510 q 420 510 456 481 l 461 503 z m 366 233 q 400 233 424 266 q 449 299 449 341 q 449 375 429 396 q 409 417 384 417 q 354 417 335 389 q 315 362 315 317 q 315 281 329 257 q 343 233 366 233 z"},".":{"x_min":0,"x_max":275,"ha":275,"o":"m 230 178 l 230 0 l 45 0 l 45 178 z"},"p":{"x_min":0,"x_max":586,"ha":586,"o":"m 246 -157 l 51 -157 l 51 497 l 230 497 l 230 426 q 268 507 371 507 q 459 507 510 438 q 560 369 560 250 q 560 130 509 60 q 457 -10 373 -10 q 290 -10 246 53 z m 246 182 q 246 148 261 130 q 276 112 299 112 q 334 112 347 144 q 360 177 360 244 q 360 322 345 353 q 330 385 300 385 q 282 385 264 371 q 246 356 246 324 z"},"X":{"x_min":0,"x_max":646,"ha":646,"o":"m 628 667 l 435 357 l 659 0 l 421 0 l 298 209 l 174 0 l -13 0 l 202 345 l -4 667 l 234 667 l 337 487 l 445 667 z"},"*":{"x_min":0,"x_max":586,"ha":586,"o":"m 360 680 l 342 518 l 498 587 l 537 460 l 374 442 l 484 325 l 377 246 l 293 398 l 209 246 l 102 325 l 212 442 l 50 460 l 89 587 l 245 518 l 227 680 z"},"Y":{"x_min":0,"x_max":591,"ha":591,"o":"m 611 667 l 403 282 l 403 0 l 204 0 l 204 282 l -20 667 l 204 667 l 321 447 l 433 667 z"},"c":{"x_min":0,"x_max":523,"ha":523,"o":"m 351 200 l 517 186 q 505 99 444 44 q 382 -10 281 -10 q 167 -10 96 61 q 25 133 25 245 q 25 359 95 433 q 166 507 279 507 q 379 507 442 451 q 505 395 514 310 l 344 295 q 333 374 284 374 q 253 374 239 345 q 224 317 224 246 q 224 185 239 156 q 253 126 289 126 q 341 126 351 200 z"},"!":{"x_min":0,"x_max":315,"ha":315,"o":"m 275 667 l 219 225 l 96 225 l 43 667 z m 252 178 l 252 0 l 63 0 l 63 178 z"},"/":{"x_min":0,"x_max":511,"ha":511,"o":"m 488 667 l 37 -157 l -61 -157 l 388 667 z"},"[":{"x_min":0,"x_max":293,"ha":293,"o":"m 267 -76 l 267 -157 l 37 -157 l 37 667 l 267 667 l 267 586 l 183 586 l 183 -76 z"},"6":{"x_min":0,"x_max":586,"ha":586,"o":"m 544 478 l 374 458 q 366 538 309 538 q 227 538 224 364 q 263 426 358 426 q 449 426 505 368 q 562 310 562 218 q 562 123 490 56 q 418 -10 306 -10 q 223 -10 159 30 q 94 69 62 147 q 29 225 29 317 q 29 474 101 575 q 172 677 305 677 q 399 677 465 625 q 531 574 544 478 z m 300 125 q 333 125 354 148 q 374 171 374 205 q 374 237 354 262 q 334 286 302 286 q 269 286 247 262 q 226 238 226 204 q 226 171 246 148 q 267 125 300 125 z"},"r":{"x_min":0,"x_max":381,"ha":381,"o":"m 238 0 l 51 0 l 51 497 l 213 497 l 213 394 q 241 506 343 506 q 353 506 371 504 l 371 331 q 351 335 334 335 q 238 335 238 228 z"},"2":{"x_min":0,"x_max":586,"ha":586,"o":"m 545 164 l 538 0 l 30 0 l 30 153 l 143 233 q 168 250 236 306 q 304 363 325 393 q 346 423 346 457 q 346 488 328 508 q 310 527 280 527 q 207 527 198 412 l 30 444 q 48 562 122 619 q 195 677 295 677 q 404 677 472 619 q 541 561 541 464 q 541 399 504 341 q 466 283 285 164 z"},"{":{"x_min":0,"x_max":293,"ha":293,"o":"m 135 255 q 167 235 180 210 q 194 186 194 135 l 194 -10 q 194 -53 207 -64 q 219 -75 279 -75 l 294 -75 l 294 -155 l 261 -155 q 217 -157 204 -157 q 121 -157 86 -125 q 51 -93 51 -21 l 51 143 q 51 191 34 206 q 17 222 -3 225 l -3 295 q 51 303 51 367 l 51 530 q 51 603 86 635 q 121 667 202 667 q 216 667 294 665 l 294 587 l 273 587 q 230 587 216 582 q 203 576 198 565 q 194 555 194 522 l 194 375 q 194 345 185 312 q 176 280 135 255 z"},"9":{"x_min":0,"x_max":586,"ha":586,"o":"m 44 168 l 215 195 q 226 134 279 134 q 321 134 344 173 q 366 212 366 280 q 366 288 365 300 q 321 236 235 236 q 145 236 86 295 q 27 355 27 447 q 27 548 96 613 q 166 677 283 677 q 418 677 487 588 q 556 499 556 353 q 556 192 484 91 q 413 -10 271 -10 q 178 -10 118 37 q 58 85 44 168 z m 281 377 q 311 377 333 398 q 355 419 355 457 q 355 496 335 518 q 314 541 283 541 q 254 541 233 520 q 212 499 212 457 q 212 419 232 398 q 251 377 281 377 z"}," ":{"x_min":0,"x_max":250,"ha":250,"o":""},"I":{"x_min":0,"x_max":321,"ha":321,"o":"m 263 667 l 263 0 l 58 0 l 58 667 z"},"H":{"x_min":0,"x_max":681,"ha":681,"o":"m 624 667 l 624 0 l 419 0 l 419 259 l 263 259 l 263 0 l 58 0 l 58 667 l 263 667 l 263 421 l 419 421 l 419 667 z"},"4":{"x_min":0,"x_max":586,"ha":586,"o":"m 575 146 l 481 146 l 481 0 l 298 0 l 298 146 l 25 146 l 25 292 l 276 677 l 481 677 l 481 292 l 575 292 z m 298 292 l 298 491 l 171 292 z"},"~":{"x_min":0,"x_max":586,"ha":586,"o":"m 124 231 l 50 282 q 82 363 117 393 q 152 423 201 423 q 235 423 307 396 q 369 374 391 374 q 434 374 460 425 l 537 378 q 479 242 377 242 q 352 242 278 269 q 213 292 194 292 q 151 292 124 231 z"},"D":{"x_min":0,"x_max":679,"ha":679,"o":"m 58 0 l 58 667 l 316 667 q 484 667 567 567 q 651 467 651 336 q 651 187 561 94 q 472 0 329 0 z m 263 153 l 316 153 q 367 153 402 203 q 437 252 437 337 q 437 410 406 462 q 375 515 316 515 l 263 515 z"},"^":{"x_min":0,"x_max":500,"ha":500,"o":"m 145 334 l 4 334 l 162 671 l 338 671 l 496 334 l 355 334 l 250 564 z"},"0":{"x_min":0,"x_max":586,"ha":586,"o":"m 292 -10 q 171 -10 101 85 q 30 180 30 334 q 30 493 102 585 q 174 677 295 677 q 421 677 489 579 q 556 481 556 329 q 556 173 484 82 q 411 -10 292 -10 z m 293 131 q 335 131 350 185 q 364 238 364 331 q 364 458 345 498 q 326 537 294 537 q 255 537 240 485 q 225 434 225 343 q 225 221 240 176 q 255 131 293 131 z"},"F":{"x_min":0,"x_max":547,"ha":547,"o":"m 475 250 l 257 250 l 257 0 l 58 0 l 58 667 l 540 667 l 540 508 l 257 508 l 257 399 l 475 399 z"},"`":{"x_min":0,"x_max":500,"ha":500,"o":"m 359 634 l 334 567 l 101 648 l 136 743 z"},"k":{"x_min":0,"x_max":574,"ha":574,"o":"m 564 497 l 415 326 l 582 0 l 380 0 l 287 199 l 234 137 l 234 0 l 51 0 l 51 667 l 234 667 l 234 397 q 234 386 232 308 q 250 333 268 353 l 393 497 z"},"u":{"x_min":0,"x_max":585,"ha":585,"o":"m 534 497 l 534 0 l 354 0 l 354 82 q 314 -10 200 -10 q 129 -10 90 29 q 51 68 51 142 l 51 497 l 246 497 l 246 184 q 246 155 254 143 q 262 131 286 131 q 311 131 326 149 q 342 167 342 199 l 342 497 z"},"]":{"x_min":0,"x_max":293,"ha":293,"o":"m 26 586 l 26 667 l 256 667 l 256 -157 l 26 -157 l 26 -76 l 111 -76 l 111 586 z"},"U":{"x_min":0,"x_max":650,"ha":650,"o":"m 599 667 l 599 225 q 599 100 524 45 q 450 -10 330 -10 q 204 -10 128 42 q 51 95 51 214 l 51 667 l 259 667 l 259 238 q 259 190 280 168 q 300 146 344 146 q 381 146 405 162 q 429 178 433 198 q 438 218 438 276 l 438 667 z"},"o":{"x_min":0,"x_max":594,"ha":594,"o":"m 294 -10 q 170 -10 98 67 q 25 144 25 247 q 25 358 101 433 q 177 507 298 507 q 421 507 495 434 q 570 360 570 250 q 570 139 494 64 q 419 -10 294 -10 z m 297 108 q 342 108 352 155 q 362 202 362 253 q 362 323 348 354 q 334 385 297 385 q 264 385 248 353 q 232 321 232 249 q 232 163 249 135 q 265 108 297 108 z"},"N":{"x_min":0,"x_max":686,"ha":686,"o":"m 628 0 l 461 0 l 279 294 q 244 351 208 432 q 224 368 224 323 l 224 0 l 58 0 l 58 667 l 251 667 l 407 422 q 453 350 477 294 q 461 380 461 469 l 461 667 l 628 667 z"},"+":{"x_min":0,"x_max":586,"ha":586,"o":"m 536 398 l 536 275 l 355 275 l 355 87 l 231 87 l 231 275 l 50 275 l 50 398 l 231 398 l 231 586 l 355 586 l 355 398 z"},"G":{"x_min":0,"x_max":684,"ha":684,"o":"m 634 374 l 634 0 l 534 0 q 521 42 507 70 q 445 -10 323 -10 q 194 -10 111 80 q 28 170 28 324 q 28 473 109 575 q 189 677 348 677 q 467 677 540 616 q 612 556 634 444 l 436 425 q 421 529 344 529 q 244 529 244 337 q 244 222 276 185 q 308 148 354 148 q 391 148 417 170 q 443 193 444 232 l 333 232 l 333 374 z"},"q":{"x_min":0,"x_max":589,"ha":589,"o":"m 538 -157 l 346 -157 l 346 53 q 314 -10 229 -10 q 132 -10 80 62 q 27 133 27 247 q 27 354 82 431 q 137 507 247 507 q 354 507 397 429 q 417 463 430 497 l 542 497 q 538 474 538 429 z m 346 314 q 346 352 329 372 q 312 393 291 393 q 259 393 243 362 q 226 331 226 247 q 226 163 242 135 q 259 108 286 108 q 308 108 327 125 q 346 141 346 181 z"},"d":{"x_min":0,"x_max":587,"ha":587,"o":"m 536 0 l 354 0 l 354 66 q 313 -10 220 -10 q 134 -10 80 57 q 27 124 27 252 q 27 372 81 442 q 134 512 223 512 q 296 512 344 456 l 344 667 l 536 667 z m 344 319 q 344 386 289 386 q 250 386 239 344 q 227 301 227 240 q 227 119 288 119 q 312 119 328 138 q 344 157 344 196 z"},"1":{"x_min":0,"x_max":586,"ha":586,"o":"m 419 148 l 576 148 l 576 0 l 63 0 l 63 148 l 228 148 l 228 465 q 134 424 82 417 l 82 566 q 224 597 274 677 l 419 677 z"},"5":{"x_min":0,"x_max":586,"ha":586,"o":"m 513 502 l 233 502 l 226 408 q 280 445 346 445 q 433 445 498 386 q 562 326 562 227 q 562 122 487 56 q 411 -10 293 -10 q 191 -10 116 44 q 41 98 24 194 l 196 215 q 213 143 289 143 q 328 143 349 166 q 371 189 371 223 q 371 261 346 283 q 321 304 287 304 q 236 304 209 262 l 56 284 l 85 667 l 530 667 z"}}}
